HIERARCHY
ROOT Hips
{
	OFFSET 0.000000 0.000000 0.000000
	CHANNELS 6 Xposition Yposition Zposition Zrotation Yrotation Xrotation 
	JOINT LeftUpLeg_virtual
	{
		OFFSET 0.000000 0.000000 0.000000
		CHANNELS 3 Zrotation Yrotation Xrotation
		JOINT LeftUpLeg
		{
			OFFSET 8.479694 -4.795517 -0.379053
			CHANNELS 3 Zrotation Yrotation Xrotation
			JOINT LeftLeg
			{
				OFFSET 0.485052 -32.551468 0.112863
				CHANNELS 3 Zrotation Yrotation Xrotation
				JOINT LeftFoot
				{
					OFFSET 0.438033 -32.635670 -3.012641
					CHANNELS 3 Zrotation Yrotation Xrotation
					JOINT LeftToeBase
					{
						OFFSET 0.970169 -13.225353 11.864223
						CHANNELS 3 Zrotation Yrotation Xrotation
						End Site
						{
							OFFSET 0.000000 0.000000 0.000000
						}
					}
				}
			}
		}
	}
	JOINT RightUpLeg_virtual
	{
		OFFSET 0.000000 0.000000 0.000000
		CHANNELS 3 Zrotation Yrotation Xrotation
		JOINT RightUpLeg
		{
			OFFSET -8.479694 -4.795517 -0.379053
			CHANNELS 3 Zrotation Yrotation Xrotation
			JOINT RightLeg
			{
				OFFSET -0.484100 -32.551483 0.112903
				CHANNELS 3 Zrotation Yrotation Xrotation
				JOINT RightFoot
				{
					OFFSET -0.438985 -32.635651 -3.012681
					CHANNELS 3 Zrotation Yrotation Xrotation
					JOINT RightToeBase
					{
						OFFSET -0.970169 -13.225354 11.864223
						CHANNELS 3 Zrotation Yrotation Xrotation
						End Site
						{
							OFFSET 0.000000 0.000000 0.000000
						}
					}
				}
			}
		}
	}
	JOINT Spine_virtual
	{
		OFFSET 0.000000 0.000000 0.000000
		CHANNELS 3 Zrotation Yrotation Xrotation
		JOINT Spine
		{
			OFFSET 0.000000 7.722015 1.166203
			CHANNELS 3 Zrotation Yrotation Xrotation
			JOINT Spine1
			{
				OFFSET 0.000000 12.024086 0.248766
				CHANNELS 3 Zrotation Yrotation Xrotation
				JOINT Spine2
				{
					OFFSET -0.000000 11.503036 -0.491240
					CHANNELS 3 Zrotation Yrotation Xrotation
					JOINT Neck_virtual
					{
						OFFSET 0.000000 0.000000 0.000000
						CHANNELS 3 Zrotation Yrotation Xrotation
						JOINT Neck
						{
							OFFSET 0.000000 18.430687 -3.123054
							CHANNELS 3 Zrotation Yrotation Xrotation
							JOINT Head
							{
								OFFSET -0.000000 9.051071 1.034021
								CHANNELS 3 Zrotation Yrotation Xrotation
								End Site
								{
									OFFSET 0.000000 0.000000 0.000000
								}
							}
						}
					}
					JOINT LeftShoulder_virtual
					{
						OFFSET 0.000000 0.000000 0.000000
						CHANNELS 3 Zrotation Yrotation Xrotation
						JOINT LeftShoulder
						{
							OFFSET 6.197824 13.665230 -4.064723
							CHANNELS 3 Zrotation Yrotation Xrotation
							JOINT LeftArm
							{
								OFFSET 7.778132 -0.187073 -1.709282
								CHANNELS 3 Zrotation Yrotation Xrotation
								JOINT LeftForeArm
								{
									OFFSET 21.954697 0.000000 -2.041093
									CHANNELS 3 Zrotation Yrotation Xrotation
									JOINT LeftHand
									{
										OFFSET 22.992908 0.000000 -0.870901
										CHANNELS 3 Zrotation Yrotation Xrotation
										End Site
										{
											OFFSET 0.000000 0.000000 0.000000
										}
									}
								}
							}
						}
					}
					JOINT RightShoulder_virtual
					{
						OFFSET 0.000000 0.000000 0.000000
						CHANNELS 3 Zrotation Yrotation Xrotation
						JOINT RightShoulder
						{
							OFFSET -6.197824 13.665230 -4.064723
							CHANNELS 3 Zrotation Yrotation Xrotation
							JOINT RightArm
							{
								OFFSET -7.778132 -0.187073 -1.709282
								CHANNELS 3 Zrotation Yrotation Xrotation
								JOINT RightForeArm
								{
									OFFSET -21.954697 0.000000 -2.041093
									CHANNELS 3 Zrotation Yrotation Xrotation
									JOINT RightHand
									{
										OFFSET -22.992908 0.000000 -0.870901
										CHANNELS 3 Zrotation Yrotation Xrotation
										End Site
										{
											OFFSET 0.000000 0.000000 0.000000
										}
									}
								}
							}
						}
					}
				}
			}
		}
	}
}
MOTION
Frames: 5
Frame Time: 0.033333
3.635252 80.302399 34.461857 -179.869603 1.891695 179.971427 -4.490195 -0.875879 11.553186 -4.420260 -1.074669 -26.630153 9.383828 7.616376 28.643814 2.373002 -5.931737 -11.537609 0.000000 0.000000 0.000000 -1.230159 -2.394275 11.472695 1.083072 -1.164849 -24.699593 -0.292584 4.304213 31.589253 5.706669 3.680637 -13.728204 0.000000 0.000000 0.000000 1.897780 1.124312 -0.314553 -4.998436 0.564408 -0.549172 0.712828 -2.707111 3.379524 0.002641 -0.021720 -0.037718 0.519659 -1.800494 4.429387 -0.890003 2.178958 -4.793188 0.000000 0.000000 0.000000 2.039856 -0.957882 1.479807 -1.856077 4.279466 -5.679219 -4.950434 -12.593398 -46.718146 2.710124 -33.199828 -2.392196 0.000000 0.000000 0.000000 -1.821545 0.241437 0.862272 19.818349 -10.218655 -11.633644 -1.124689 9.117657 -58.265154 1.253252 17.628489 3.984970 0.000000 0.000000 0.000000 
3.626534 80.298187 34.384541 -179.872718 1.798033 179.871625 -4.574258 -0.730343 11.417805 -4.589246 -0.755459 -26.564503 9.421601 7.869682 28.625377 2.658849 -5.515398 -10.918673 0.000000 0.000000 0.000000 -1.252981 -2.535193 11.396852 1.068671 -1.225547 -24.666637 -0.111383 4.499395 31.394678 5.613933 3.563322 -13.386152 0.000000 0.000000 0.000000 1.877672 1.107402 -0.339418 -4.945682 0.541383 -0.520839 0.695367 -2.706056 3.418127 0.003781 -0.031437 -0.017911 0.503438 -1.786132 4.398889 -0.844190 2.117536 -4.766080 0.000000 0.000000 0.000000 1.989834 -1.007291 1.452882 -1.846690 4.229513 -5.657362 -4.980555 -12.715568 -46.611431 2.743959 -33.075949 -2.455073 0.000000 0.000000 0.000000 -1.841477 0.196878 0.790888 19.809050 -10.343454 -11.480230 -1.028691 9.093232 -58.304612 1.191463 17.708025 3.872421 0.000000 0.000000 0.000000 
3.619797 80.294884 34.288269 -179.868374 1.866547 179.888851 -4.581813 -0.714127 11.299795 -4.594776 -0.798459 -26.413276 9.399598 7.770782 28.682498 2.765823 -5.395166 -10.983713 0.000000 0.000000 0.000000 -1.287930 -2.437259 11.280936 1.081120 -1.175565 -24.576793 -0.141647 4.363755 31.451409 5.674382 3.669762 -13.342315 0.000000 0.000000 0.000000 1.823578 1.157017 -0.397634 -4.887523 0.564090 -0.575864 0.671121 -2.652565 3.476888 -0.042364 0.012866 0.002477 0.539777 -1.760463 4.408922 -0.762496 2.058345 -4.663547 0.000000 0.000000 0.000000 2.016607 -0.972725 1.494442 -1.976258 4.154302 -5.682882 -4.779658 -12.890511 -46.711367 2.700685 -32.733210 -2.397609 0.000000 0.000000 0.000000 -1.840332 0.175386 0.752344 19.902454 -10.352356 -11.369656 -1.189313 8.964281 -58.215622 1.152969 17.769133 3.814761 0.000000 0.000000 0.000000 
3.622855 80.300636 34.188850 -179.963873 1.941405 179.878141 -4.642584 -0.681324 11.213480 -4.715627 -0.872978 -26.240403 9.370920 7.602938 28.660806 2.848955 -5.279636 -10.988962 0.000000 0.000000 0.000000 -1.337541 -2.387344 11.218783 1.049544 -1.287534 -24.452429 -0.325603 4.151534 31.569759 5.842751 3.880479 -13.280102 0.000000 0.000000 0.000000 1.694918 1.193461 -0.395190 -4.852913 0.540058 -0.546461 0.659348 -2.631782 3.440125 -0.029614 0.006125 -0.012372 0.578806 -1.653650 4.488448 -0.648801 2.002545 -4.640085 0.000000 0.000000 0.000000 2.064434 -0.958336 1.496832 -2.090118 4.049711 -5.704223 -4.736165 -12.819983 -46.890598 2.487561 -32.415647 -2.307429 0.000000 0.000000 0.000000 -1.783663 0.194725 0.792974 19.857414 -10.322187 -11.487690 -1.169270 8.911705 -58.286833 1.134958 17.828636 3.809800 0.000000 0.000000 0.000000 
3.623619 80.295845 34.086773 -179.856230 1.935682 179.984596 -4.558141 -0.700280 11.172283 -4.702649 -0.836757 -26.159491 9.495935 7.653043 28.637791 2.835157 -5.347406 -11.088437 0.000000 0.000000 0.000000 -1.299273 -2.287000 11.149709 1.067403 -1.073888 -24.438702 -0.410468 3.927657 31.660034 5.838835 3.873286 -13.285651 0.000000 0.000000 0.000000 1.697832 1.205814 -0.414026 -4.720865 0.444174 -0.593584 0.711828 -2.673889 3.437042 0.019998 -0.047509 -0.039129 0.515727 -1.736279 4.568903 -0.530968 1.977556 -4.699353 0.000000 0.000000 0.000000 1.985340 -0.864939 1.536099 -2.200057 4.036855 -5.609319 -4.670540 -12.692863 -46.897155 2.488870 -32.083929 -2.447286 0.000000 0.000000 0.000000 -1.882153 0.305761 0.932639 19.841679 -10.200695 -11.513198 -1.287558 8.895109 -58.417959 1.126833 17.934248 3.747131 0.000000 0.000000 0.000000 
